# xmcd CD database file
#
# Track frame offsets:
#	150
#	22936
#	46510
#	68069
#	95555
#	125329
#	143258
#	167306
#	183217
#	205897
#
# Disc length: 3109 seconds
#
# Revision: 0
# Processed by: cddbd v1.5PL3 Copyright (c) Steve Scherf et al.
# Submitted via: CDex 1.51
#
DISCID=6f0c230a
DTITLE=Tim Mac Brian - The River
DYEAR=1999
DGENRE=New Age
TTITLE0=The River
TTITLE1=Hidden Forest
TTITLE2=Deep Feelings
TTITLE3=Rain Drops
TTITLE4=Walk To The Falls
TTITLE5=The Meeting
TTITLE6=Legend
TTITLE7=Wind And Leaves
TTITLE8=New Spring
TTITLE9=The Valley
EXTD=YEAR: 1999
EXTT0=
EXTT1=
EXTT2=
EXTT3=
EXTT4=
EXTT5=
EXTT6=
EXTT7=
EXTT8=
EXTT9=
PLAYORDER=
